<?xml version="1.0" standalone="no"?>
<!DOCTYPE svg PUBLIC "-//W3C//DTD SVG 20010904//EN"
 "http://www.w3.org/TR/2001/REC-SVG-20010904/DTD/svg10.dtd">
<svg version="1.0" xmlns="http://www.w3.org/2000/svg"
 width="1280.000000pt" height="1280.000000pt" viewBox="0 0 1280.000000 1280.000000"
 preserveAspectRatio="xMidYMid meet">
<metadata>
Created by potrace 1.15, written by Peter Selinger 2001-2017
</metadata>
<g transform="translate(0.000000,1280.000000) scale(0.100000,-0.100000)"
fill="#fff" stroke="none">
<path d="M6281 10568 c-61 -31 -158 -123 -183 -172 -46 -89 -58 -201 -34 -294
26 -97 82 -170 182 -235 l49 -32 0 -286 c0 -213 -4 -290 -13 -301 -8 -11 -41
-18 -105 -22 -288 -21 -647 -96 -922 -194 -132 -46 -403 -164 -470 -203 -16
-10 -57 -32 -90 -49 -82 -43 -293 -181 -400 -262 -380 -286 -694 -638 -947
-1062 -79 -132 -225 -443 -253 -536 -4 -14 -13 -38 -21 -55 -37 -82 -99 -304
-128 -455 -9 -47 -23 -116 -31 -155 -69 -327 -69 -855 0 -1200 8 -38 21 -108
30 -155 31 -161 137 -502 195 -625 10 -22 28 -62 40 -90 40 -91 111 -228 131
-253 10 -14 19 -29 19 -34 0 -25 118 -203 295 -447 131 -179 449 -489 678
-659 53 -40 97 -76 97 -80 0 -4 -90 -97 -200 -207 -238 -236 -253 -260 -253
-390 0 -92 18 -137 83 -202 56 -57 114 -78 210 -77 134 1 139 4 437 303 143
144 267 261 275 261 8 0 57 -18 109 -41 116 -51 461 -166 549 -184 479 -96
666 -113 1065 -92 201 10 551 69 730 124 207 64 422 141 490 177 17 9 37 16
45 16 8 0 134 -119 280 -264 241 -240 270 -265 323 -285 147 -54 294 -3 369
127 26 46 32 69 36 134 4 74 3 83 -29 144 -28 56 -64 95 -226 252 -106 102
-193 191 -193 198 0 7 12 21 26 31 14 10 42 32 62 48 21 17 48 38 62 47 51 32
249 209 356 319 200 204 316 352 496 634 50 78 178 310 178 322 0 4 19 48 42
98 72 157 77 169 98 240 12 39 25 79 30 90 6 11 28 83 50 160 60 208 100 458
129 797 7 89 -3 460 -13 497 -3 9 -10 63 -16 121 -36 353 -162 774 -340 1140
-26 53 -77 145 -105 190 -14 22 -25 43 -25 47 -1 24 -268 397 -360 503 -356
406 -789 728 -1265 939 -370 164 -791 269 -1193 297 -75 5 -94 10 -102 24 -6
11 -10 134 -10 295 l0 276 24 22 c13 12 42 36 66 52 123 88 181 248 146 400
-27 113 -78 183 -186 254 l-55 36 -135 3 c-124 2 -139 1 -179 -20z m440 -2167
c30 -5 95 -15 144 -21 471 -60 975 -291 1375 -628 138 -117 320 -315 451 -492
79 -107 242 -399 293 -525 63 -156 65 -164 135 -400 18 -59 49 -233 67 -375
48 -367 -7 -848 -136 -1205 -18 -49 -39 -107 -46 -128 -23 -63 -132 -283 -175
-355 -139 -228 -261 -385 -433 -557 -325 -324 -674 -538 -1111 -682 -129 -42
-156 -48 -425 -98 -124 -23 -385 -34 -577 -24 -269 13 -643 95 -838 183 -27
13 -72 31 -98 41 -27 10 -106 48 -176 85 -408 213 -731 504 -1026 925 -19 28
-38 57 -42 65 -3 8 -21 38 -38 65 -105 167 -241 499 -285 699 -12 50 -25 109
-30 131 -69 305 -79 680 -25 970 8 44 22 118 30 165 9 47 20 96 24 110 5 14
19 59 30 100 12 41 30 98 40 125 38 102 103 260 111 270 4 6 31 55 60 110 29
55 75 136 104 180 28 44 56 87 61 96 51 86 282 349 406 461 88 80 288 236 329
258 14 7 54 31 90 54 36 22 74 47 85 53 11 7 79 41 150 77 256 126 528 211
785 245 47 6 114 16 150 21 36 6 81 12 100 13 73 7 390 -1 441 -12z"/>

<path d="M3885 10400 c-311 -36 -457 -77 -700 -196 -390 -191 -709 -509 -886
-884 -27 -58 -56 -118 -64 -133 -8 -16 -15 -34 -15 -41 0 -7 -7 -27 -16 -44
-8 -17 -26 -75 -39 -129 -48 -194 -68 -324 -72 -483 -5 -158 -5 -153 48 -460
10 -55 72 -250 104 -325 44 -103 103 -210 173 -314 96 -142 197 -261 221 -261
13 0 23 14 35 48 10 26 23 61 29 77 19 51 181 365 235 457 50 87 200 309 270
402 149 198 410 467 622 643 228 189 378 288 727 484 217 121 635 276 923 342
97 22 120 31 120 47 0 5 -30 43 -67 86 -195 222 -389 374 -633 494 -179 89
-346 139 -600 180 -81 13 -335 19 -415 10z"/>
<path d="M8705 10400 c-401 -34 -741 -164 -1050 -404 -120 -93 -355 -339 -355
-372 0 -14 0 -14 240 -74 91 -22 214 -59 275 -81 60 -23 135 -51 165 -62 122
-45 391 -177 503 -245 37 -23 69 -42 71 -42 5 0 160 -98 221 -140 349 -239
661 -538 936 -895 42 -54 71 -97 201 -294 21 -31 38 -59 38 -62 0 -4 19 -38
42 -75 52 -87 168 -319 215 -433 19 -47 39 -90 44 -96 22 -22 196 203 310 400
89 153 177 398 203 565 36 224 44 395 26 532 -5 40 -14 111 -20 158 -10 73
-43 218 -65 285 -66 196 -204 451 -328 606 -131 165 -358 365 -512 454 -81 47
-207 110 -255 129 -25 10 -58 23 -75 30 -207 88 -568 139 -830 116z"/>
</g>
</svg>
